{
    "asset" : {
        "generator" : "Khronos glTF Blender I/O v1.7.33",
        "version" : "2.0"
    },
    "scene" : 0,
    "scenes" : [
        {
            "name" : "Scene",
            "nodes" : [
                0
            ]
        }
    ],
    "nodes" : [
        {
            "mesh" : 0,
            "name" : "Plane"
        }
    ],
    "meshes" : [
        {
            "name" : "Plane",
            "primitives" : [
                {
                    "attributes" : {
                        "POSITION" : 0,
                        "NORMAL" : 1,
                        "TEXCOORD_0" : 2
                    },
                    "indices" : 3
                }
            ]
        }
    ],
    "accessors" : [
        {
            "bufferView" : 0,
            "componentType" : 5126,
            "count" : 1271,
            "max" : [
                1.7064547538757324,
                1.1412689685821533,
                0.1071733608841896
            ],
            "min" : [
                -1.655765175819397,
                -0.7319239377975464,
                -0.11004721373319626
            ],
            "type" : "VEC3"
        },
        {
            "bufferView" : 1,
            "componentType" : 5126,
            "count" : 1271,
            "type" : "VEC3"
        },
        {
            "bufferView" : 2,
            "componentType" : 5126,
            "count" : 1271,
            "type" : "VEC2"
        },
        {
            "bufferView" : 3,
            "componentType" : 5123,
            "count" : 3828,
            "type" : "SCALAR"
        }
    ],
    "bufferViews" : [
        {
            "buffer" : 0,
            "byteLength" : 15252,
            "byteOffset" : 0
        },
        {
            "buffer" : 0,
            "byteLength" : 15252,
            "byteOffset" : 15252
        },
        {
            "buffer" : 0,
            "byteLength" : 10168,
            "byteOffset" : 30504
        },
        {
            "buffer" : 0,
            "byteLength" : 7656,
            "byteOffset" : 40672
        }
    ],
    "buffers" : [
        {
            "byteLength" : 48328,
            "uri" : "data:application/octet-stream;base64,"
        }
    ]
}
